<?xml version="1.0" encoding="UTF-8"?>
<svg xmlns="http://www.w3.org/2000/svg" xmlns:xlink="http://www.w3.org/1999/xlink" width="819.3pt" height="433.3pt" viewBox="0 0 819.3 433.3" version="1.1">
<defs>
<clipPath id="clip1">
  <path d="M 235 80 L 819.300781 80 L 819.300781 414 L 235 414 Z M 235 80 "/>
</clipPath>
<clipPath id="clip2">
  <path d="M 114 19 L 819.300781 19 L 819.300781 412 L 114 412 Z M 114 19 "/>
</clipPath>
<clipPath id="clip3">
  <path d="M 111 17 L 819.300781 17 L 819.300781 415 L 111 415 Z M 111 17 "/>
</clipPath>
</defs>
<g id="surface1">
<path style=" stroke:none;fill-rule:evenodd;fill:rgb(100%,0%,0%);fill-opacity:1;" d="M 411.320313 355.894531 C 613.265625 404.402344 650.046875 412.996094 718.148438 206.28125 L 382.925781 309.566406 L 803.625 129.003906 L 756.382813 270.871094 C 721.804688 374.71875 612.941406 433.210938 507.789063 402.820313 L 238.753906 325.0625 L 818.742188 83.597656 L 807.917969 116.097656 L 298.101563 323.980469 C 335.550781 334.800781 373.480469 346.808594 411.320313 355.894531 Z M 411.320313 355.894531 "/>
<g clip-path="url(#clip1)" clip-rule="nonzero">
<path style="fill:none;stroke-width:5;stroke-linecap:butt;stroke-linejoin:miter;stroke:rgb(89.0625%,0%,8.616638%);stroke-opacity:1;stroke-miterlimit:4;" d="M 4113.203125 774.054688 C 6132.65625 288.976563 6500.46875 203.039063 7181.484375 2270.1875 L 3829.257813 1237.335938 L 8036.25 3042.960938 L 7563.828125 1624.289063 C 7218.046875 585.8125 6129.414063 0.890625 5077.890625 304.796875 L 2387.539063 1082.375 L 8187.421875 3497.023438 L 8079.179688 3172.023438 L 2981.015625 1093.195313 C 3355.507813 984.992188 3734.804688 864.914063 4113.203125 774.054688 Z M 4113.203125 774.054688 " transform="matrix(0.1,0,0,-0.1,0,433.3)"/>
</g>
<g clip-path="url(#clip2)" clip-rule="nonzero">
<path style=" stroke:none;fill-rule:evenodd;fill:rgb(80.076599%,80.076599%,80.076599%);fill-opacity:1;" d="M 819.277344 52.386719 C 742.277344 28.886719 674.488281 -0.0976563 576.488281 39.402344 C 547.925781 65.238281 251.167969 306.773438 240.363281 296.148438 C 201.433594 257.847656 131.640625 213.105469 114.597656 199.871094 C 139.933594 271.742188 156.699219 305.089844 171.003906 341.363281 C 171.003906 341.363281 247.78125 385.867188 350.664063 411.929688 C 291.054688 383.503906 248.949219 359.894531 218.488281 326.9375 C 218.082031 326.503906 218.097656 325.804688 218.429688 324.921875 C 422.292969 241.203125 606.871094 84.664063 819.277344 52.386719 Z M 819.277344 52.386719 "/>
</g>
<g clip-path="url(#clip3)" clip-rule="nonzero">
<path style="fill:none;stroke-width:5;stroke-linecap:butt;stroke-linejoin:miter;stroke:rgb(70.117188%,70.117188%,70.117188%);stroke-opacity:1;stroke-miterlimit:4;" d="M 8192.773438 3809.132813 C 7422.773438 4044.132813 6744.882813 4333.976563 5764.882813 3938.976563 C 5479.257813 3680.617188 2511.679688 1265.265625 2403.632813 1371.515625 C 2014.335938 1754.523438 1316.40625 2201.945313 1145.976563 2334.289063 C 1399.335938 1615.578125 1566.992188 1282.101563 1710.039063 919.367188 C 1710.039063 919.367188 2477.8125 474.328125 3506.640625 213.703125 C 2910.546875 497.960938 2489.492188 734.054688 2184.882813 1063.625 C 2180.820313 1067.960938 2180.976563 1074.953125 2184.296875 1083.78125 C 4222.929688 1920.96875 6068.710938 3486.359375 8192.773438 3809.132813 Z M 8192.773438 3809.132813 " transform="matrix(0.1,0,0,-0.1,0,433.3)"/>
</g>
<path style="fill:none;stroke-width:5;stroke-linecap:butt;stroke-linejoin:miter;stroke:rgb(10.594177%,9.812927%,9.423828%);stroke-opacity:1;stroke-miterlimit:4;" d="M 380.15625 3514.523438 C 351.40625 2877.375 962.226563 1639.445313 1440.078125 1361.203125 C 254.140625 1805.578125 -29.609375 2273.78125 380.15625 3514.523438 Z M 380.15625 3514.523438 " transform="matrix(0.1,0,0,-0.1,0,433.3)"/>
<path style="fill-rule:evenodd;fill:rgb(80.076599%,80.076599%,80.076599%);fill-opacity:1;stroke-width:5;stroke-linecap:butt;stroke-linejoin:miter;stroke:rgb(70.117188%,70.117188%,70.117188%);stroke-opacity:1;stroke-miterlimit:4;" d="M 1440.078125 1361.203125 C 962.226563 1639.445313 351.40625 2877.375 380.15625 3514.523438 C -29.609375 2273.78125 254.140625 1805.578125 1440.078125 1361.203125 Z M 1440.078125 1361.203125 " transform="matrix(0.1,0,0,-0.1,0,433.3)"/>
</g>
</svg>
