<?xml version="1.0" encoding="utf-8"?>
<!-- Generator: Adobe Illustrator 21.0.0, SVG Export Plug-In . SVG Version: 6.00 Build 0)  -->
<svg version="1.1" id="Layer_1" xmlns="http://www.w3.org/2000/svg" xmlns:xlink="http://www.w3.org/1999/xlink" x="0px" y="0px"
	 viewBox="0 0 388 85" style="enable-background:new 0 0 388 85;" xml:space="preserve">
<style type="text/css">
	.st0{fill:#FFDD00;}
</style>
<g>
	<path class="st0" d="M118.4,12.9l-1.8,7.6H116c-0.1-2.1-0.6-3.6-1.5-4.6c-0.9-1-2.2-1.5-3.7-1.5c-1.6,0-3.3,0.7-4.9,2.1
		c-1.6,1.4-3,3.5-4.1,6.4c-0.9,2.3-1.4,4.6-1.4,6.9c0,2,0.5,3.6,1.5,4.6c1,1.1,2.4,1.6,4.1,1.6c1.4,0,2.7-0.3,3.8-0.9
		c1.2-0.6,2.3-1.6,3.5-3h0.8c-1.5,2.2-2.9,3.7-4.4,4.6c-1.5,0.9-3.3,1.3-5.5,1.3c-2.9,0-5.2-0.9-6.9-2.6c-1.8-1.7-2.6-4-2.6-6.8
		c0-2.6,0.7-5.1,2.1-7.5c1.4-2.4,3.4-4.3,6-5.8c2.6-1.5,5.2-2.2,7.8-2.2c1,0,2.2,0.2,3.7,0.6c0.8,0.2,1.3,0.3,1.6,0.3
		c0.6,0,1.2-0.3,1.8-0.9H118.4z"/>
	<path class="st0" d="M133.8,21.3L130.3,33l-0.4,1.4c0,0.2-0.1,0.3-0.1,0.4c0,0.1,0,0.3,0.1,0.4c0.1,0.1,0.2,0.2,0.3,0.2
		c0.2,0,0.6-0.2,1-0.6c0.2-0.2,0.6-0.7,1.3-1.6l0.6,0.3c-0.8,1.5-1.7,2.6-2.7,3.3c-0.9,0.7-2,1-3.1,1c-0.7,0-1.2-0.2-1.5-0.5
		c-0.3-0.3-0.5-0.8-0.5-1.3c0-0.5,0.2-1.3,0.6-2.6l0.4-1.4c-1.4,2.3-2.7,4-3.9,5c-0.7,0.6-1.5,0.8-2.3,0.8c-1.1,0-1.9-0.4-2.4-1.3
		c-0.5-0.9-0.7-1.9-0.7-3c0-1.7,0.5-3.5,1.5-5.7c1-2.1,2.4-3.9,4-5.2c1.4-1.1,2.6-1.6,3.8-1.6c0.7,0,1.2,0.2,1.6,0.6
		c0.4,0.4,0.7,1.1,0.9,2.1l0.6-2.1L133.8,21.3z M128.2,24.6c0-0.9-0.1-1.6-0.4-2.1c-0.2-0.3-0.5-0.4-0.9-0.4c-0.4,0-0.7,0.2-1.1,0.5
		c-0.8,0.7-1.7,2.2-2.6,4.4c-0.9,2.2-1.4,4.1-1.4,5.8c0,0.6,0.1,1.1,0.3,1.3c0.2,0.3,0.4,0.4,0.7,0.4c0.5,0,1.1-0.3,1.6-0.9
		c0.8-0.9,1.5-1.9,2.1-3.2C127.6,28.3,128.2,26.3,128.2,24.6z"/>
	<path class="st0" d="M144.3,21l-2.3,7.6c1.6-2.2,2.7-3.7,3.5-4.5c1.1-1.2,2.1-2,2.9-2.4c0.8-0.4,1.6-0.6,2.3-0.6
		c0.7,0,1.2,0.2,1.7,0.7c0.5,0.5,0.7,1.1,0.7,1.9c0,0.7-0.1,1.4-0.4,2.4l-2.4,7.4c-0.2,0.6-0.3,1.1-0.3,1.3c0,0.1,0,0.2,0.1,0.3
		c0.1,0.1,0.2,0.1,0.3,0.1c0.1,0,0.2,0,0.4-0.1c0.4-0.3,0.8-0.8,1.3-1.4c0.1-0.2,0.3-0.4,0.5-0.7l0.7,0.4c-1.7,2.9-3.6,4.3-5.5,4.3
		c-0.7,0-1.3-0.2-1.7-0.6c-0.4-0.4-0.6-0.9-0.6-1.4c0-0.5,0.2-1.2,0.5-2.2l2.4-7.5c0.2-0.5,0.2-0.9,0.2-1.1c0-0.1-0.1-0.2-0.2-0.3
		c-0.1-0.1-0.3-0.2-0.4-0.2c-0.5,0-1.1,0.3-1.8,0.9c-1.8,1.6-3.5,3.9-5.1,6.9l-1.5,5.2h-4.5l3.4-11.3c0.3-1.1,0.5-1.9,0.5-2.4
		c0-0.2-0.1-0.4-0.1-0.5c-0.1-0.1-0.3-0.2-0.5-0.3c-0.2-0.1-0.7-0.1-1.3-0.1l0.1-0.7l6.1-1.1H144.3z"/>
	<path class="st0" d="M171.9,21.3L168.4,33l-0.4,1.4c0,0.2-0.1,0.3-0.1,0.4c0,0.1,0,0.3,0.2,0.4c0.1,0.1,0.2,0.2,0.3,0.2
		c0.2,0,0.6-0.2,1-0.6c0.2-0.2,0.6-0.7,1.3-1.6l0.6,0.3c-0.8,1.5-1.7,2.6-2.7,3.3c-0.9,0.7-2,1-3.1,1c-0.7,0-1.2-0.2-1.5-0.5
		c-0.4-0.3-0.5-0.8-0.5-1.3c0-0.5,0.2-1.3,0.6-2.6l0.4-1.4c-1.4,2.3-2.7,4-4,5c-0.7,0.6-1.5,0.8-2.3,0.8c-1.1,0-1.9-0.4-2.4-1.3
		c-0.5-0.9-0.7-1.9-0.7-3c0-1.7,0.5-3.5,1.5-5.7c1-2.1,2.4-3.9,4-5.2c1.4-1.1,2.6-1.6,3.8-1.6c0.7,0,1.2,0.2,1.6,0.6
		c0.4,0.4,0.7,1.1,0.9,2.1l0.6-2.1L171.9,21.3z M166.2,24.6c0-0.9-0.1-1.6-0.4-2.1c-0.2-0.3-0.5-0.4-0.9-0.4c-0.4,0-0.8,0.2-1.1,0.5
		c-0.8,0.7-1.7,2.2-2.6,4.4c-0.9,2.2-1.4,4.1-1.4,5.8c0,0.6,0.1,1.1,0.3,1.3c0.2,0.3,0.4,0.4,0.7,0.4c0.5,0,1.1-0.3,1.6-0.9
		c0.8-0.9,1.5-1.9,2.1-3.2C165.7,28.3,166.2,26.3,166.2,24.6z"/>
	<path class="st0" d="M192.5,12.9l-6,19.7c-0.4,1.2-0.6,2-0.6,2.2c0,0.1,0,0.2,0.1,0.3c0.1,0.1,0.2,0.1,0.3,0.1
		c0.2,0,0.4-0.1,0.7-0.3c0.4-0.3,1-1,1.6-1.9l0.6,0.3c-1.7,2.9-3.5,4.3-5.5,4.3c-0.7,0-1.2-0.2-1.6-0.6c-0.4-0.4-0.6-0.8-0.6-1.4
		c0-0.5,0.2-1.3,0.5-2.3l0.6-1.8c-1.5,2.6-2.8,4.3-3.8,5.2c-0.8,0.6-1.6,0.9-2.4,0.9c-0.9,0-1.6-0.4-2.2-1.1
		c-0.6-0.7-0.9-1.8-0.9-3.1c0-1.8,0.4-3.5,1.2-5.2c0.8-1.7,1.7-3.1,2.7-4.3c1-1.1,2-1.9,2.9-2.4c0.9-0.5,1.8-0.7,2.7-0.7
		c0.5,0,0.9,0.1,1.2,0.3c0.4,0.2,0.8,0.6,1.2,1.1l1.4-4.4c0.4-1.1,0.5-1.9,0.5-2.4c0-0.3-0.1-0.5-0.4-0.7c-0.2-0.2-0.5-0.3-1-0.3
		c-0.2,0-0.4,0-0.7,0.1l0.2-0.7l6-1.1H192.5z M184.6,24.1c0-0.7-0.1-1.2-0.4-1.6c-0.3-0.3-0.6-0.5-1-0.5c-0.4,0-0.8,0.2-1.2,0.6
		c-0.9,0.7-1.7,2.3-2.7,4.5c-0.9,2.3-1.4,4.2-1.4,5.7c0,0.6,0.1,1,0.3,1.2c0.2,0.3,0.4,0.4,0.7,0.4c0.4,0,0.8-0.2,1.3-0.6
		c1-0.9,2-2.4,3-4.6C184.1,27.2,184.6,25.4,184.6,24.1z"/>
	<path class="st0" d="M208,21.3L204.5,33l-0.4,1.4c0,0.2-0.1,0.3-0.1,0.4c0,0.1,0.1,0.3,0.2,0.4c0.1,0.1,0.2,0.2,0.3,0.2
		c0.2,0,0.6-0.2,1-0.6c0.2-0.2,0.6-0.7,1.3-1.6l0.6,0.3c-0.8,1.5-1.7,2.6-2.7,3.3c-0.9,0.7-2,1-3.1,1c-0.7,0-1.2-0.2-1.5-0.5
		c-0.4-0.3-0.5-0.8-0.5-1.3c0-0.5,0.2-1.3,0.6-2.6l0.4-1.4c-1.4,2.3-2.7,4-3.9,5c-0.7,0.6-1.5,0.8-2.3,0.8c-1.1,0-1.9-0.4-2.4-1.3
		c-0.5-0.9-0.7-1.9-0.7-3c0-1.7,0.5-3.5,1.5-5.7c1-2.1,2.4-3.9,4-5.2c1.4-1.1,2.6-1.6,3.8-1.6c0.7,0,1.2,0.2,1.6,0.6
		c0.4,0.4,0.7,1.1,0.9,2.1l0.6-2.1L208,21.3z M202.3,24.6c0-0.9-0.1-1.6-0.5-2.1c-0.2-0.3-0.5-0.4-0.9-0.4c-0.4,0-0.8,0.2-1.1,0.5
		c-0.8,0.7-1.7,2.2-2.6,4.4c-0.9,2.2-1.4,4.1-1.4,5.8c0,0.6,0.1,1.1,0.3,1.3c0.2,0.3,0.4,0.4,0.7,0.4c0.5,0,1.1-0.3,1.6-0.9
		c0.8-0.9,1.5-1.9,2.1-3.2C201.7,28.3,202.3,26.3,202.3,24.6z"/>
	<path class="st0" d="M243.6,12.9l-1.8,7.6h-0.6c-0.1-2.1-0.6-3.6-1.5-4.6c-0.9-1-2.2-1.5-3.7-1.5c-1.6,0-3.3,0.7-4.9,2.1
		c-1.6,1.4-3,3.5-4.1,6.4c-0.9,2.3-1.4,4.6-1.4,6.9c0,2,0.5,3.6,1.5,4.6c1,1.1,2.4,1.6,4.1,1.6c1.4,0,2.7-0.3,3.9-0.9
		c1.2-0.6,2.3-1.6,3.5-3h0.8c-1.5,2.2-2.9,3.7-4.4,4.6c-1.5,0.9-3.3,1.3-5.5,1.3c-2.9,0-5.2-0.9-6.9-2.6c-1.8-1.7-2.6-4-2.6-6.8
		c0-2.6,0.7-5.1,2.1-7.5c1.4-2.4,3.4-4.3,6-5.8c2.6-1.5,5.2-2.2,7.8-2.2c1,0,2.2,0.2,3.7,0.6c0.7,0.2,1.3,0.3,1.6,0.3
		c0.6,0,1.2-0.3,1.8-0.9H243.6z"/>
	<path class="st0" d="M253.6,21c0.9,0,1.8,0.2,2.6,0.6c0.8,0.4,1.4,1,1.9,1.8c0.4,0.8,0.6,1.6,0.6,2.5c0,1.9-0.5,3.8-1.6,5.7
		c-1.1,1.9-2.5,3.4-4.2,4.5c-1.7,1.1-3.5,1.6-5.3,1.6c-1.6,0-2.8-0.5-3.7-1.4c-0.9-1-1.3-2.1-1.3-3.5c0-1.6,0.3-3.2,1-4.6
		c0.6-1.4,1.5-2.7,2.5-3.7c1-1.1,2.2-1.9,3.5-2.6C250.8,21.3,252.2,21,253.6,21z M252.8,21.9c-0.6,0-1.1,0.2-1.6,0.5
		c-0.8,0.8-1.8,2.5-2.8,5.2c-1,2.7-1.6,5.2-1.6,7.4c0,0.5,0.2,1,0.5,1.3c0.3,0.4,0.7,0.5,1.2,0.5c0.5,0,0.9-0.1,1.2-0.4
		c0.5-0.4,1.2-1.4,1.9-2.8c0.8-1.5,1.4-3.1,1.9-4.9c0.5-1.8,0.7-3.4,0.7-4.9c0-0.6-0.1-1.1-0.4-1.4
		C253.6,22.1,253.2,21.9,252.8,21.9z"/>
	<path class="st0" d="M269.5,21l-2.3,7.6c1.5-2.3,2.6-3.9,3.3-4.7c1-1.2,1.9-2,2.5-2.3c0.7-0.4,1.3-0.5,2-0.5c0.8,0,1.3,0.2,1.7,0.7
		c0.3,0.5,0.5,1,0.5,1.5c0,0.6-0.2,1.4-0.5,2.5l-0.8,2.8c1.6-2.4,2.8-3.9,3.5-4.7c1.1-1.2,2.1-2,2.9-2.4c0.6-0.3,1.2-0.5,1.8-0.5
		c0.7,0,1.2,0.2,1.7,0.7c0.4,0.5,0.7,1.1,0.7,1.8c0,0.7-0.2,1.7-0.6,2.9l-2.1,6.5c-0.3,1-0.5,1.6-0.5,1.8c0,0.1,0,0.2,0.1,0.3
		c0.1,0.1,0.2,0.1,0.3,0.1c0.1,0,0.2,0,0.3-0.1c0.4-0.3,0.9-0.8,1.4-1.5c0.1-0.1,0.3-0.3,0.5-0.6l0.6,0.4c-0.8,1.5-1.7,2.6-2.7,3.3
		c-1,0.7-1.9,1-2.7,1c-0.7,0-1.3-0.2-1.7-0.6c-0.4-0.4-0.7-0.8-0.7-1.4c0-0.5,0.2-1.3,0.5-2.3l2.2-6.9c0.3-1,0.5-1.6,0.5-1.8
		c0-0.1-0.1-0.2-0.1-0.2c-0.1-0.1-0.2-0.1-0.3-0.1c-0.2,0-0.3,0-0.5,0.1c-0.3,0.1-0.6,0.4-1.2,0.9c-0.5,0.5-1.3,1.4-2.3,2.7
		c-1,1.3-1.6,2.3-2,3c-0.3,0.7-0.7,1.6-1,2.8l-1.1,3.6h-4.5l3.4-11.5c0.2-0.6,0.3-1.1,0.3-1.3c0-0.1,0-0.2-0.1-0.2
		c-0.1-0.1-0.2-0.1-0.2-0.1c-0.4,0-1.1,0.6-2.1,1.7c-1.4,1.8-2.7,3.9-3.9,6.4l-1.5,5h-4.5l3.4-11.3c0.3-1.1,0.5-1.9,0.5-2.4
		c0-0.2-0.1-0.3-0.2-0.5c-0.1-0.1-0.3-0.2-0.5-0.3c-0.2-0.1-0.7-0.1-1.3-0.1l0.1-0.7l6.2-1.1H269.5z"/>
	<path class="st0" d="M289.6,22l6.1-1h1.1l-0.8,2.8c1.2-1.1,2.3-1.9,3-2.3c0.8-0.4,1.6-0.6,2.4-0.6c1.1,0,2,0.4,2.6,1.3
		c0.6,0.9,0.9,1.9,0.9,3.1c0,3.4-1.2,6.4-3.5,9c-2.1,2.3-4.3,3.4-6.8,3.4c-0.4,0-0.8,0-1.1-0.1c-0.3-0.1-0.7-0.3-1.3-0.5l-0.9,3.2
		c-0.3,1.2-0.5,2-0.5,2.6c0,0.4,0.1,0.7,0.4,0.9c0.2,0.2,0.8,0.4,1.7,0.6l-0.1,0.7h-9.4l0.1-0.7c0.8,0,1.4-0.3,1.9-0.7
		c0.5-0.5,1-1.4,1.4-3l4.2-14.8c0.3-1.1,0.5-1.9,0.5-2.3c0-0.2,0-0.4-0.1-0.5c-0.1-0.1-0.3-0.2-0.5-0.3c-0.2-0.1-0.7-0.1-1.5-0.1
		L289.6,22z M292.7,35.5c0.4,0.6,0.7,1,1,1.2c0.3,0.2,0.6,0.3,1,0.3c0.4,0,0.7-0.1,1.1-0.3c0.4-0.2,0.8-0.6,1.3-1.2
		c0.5-0.6,1-1.4,1.5-2.4c0.5-1,0.9-2.1,1.2-3.3c0.3-1.2,0.4-2.4,0.4-3.6c0-0.9-0.2-1.6-0.5-2c-0.3-0.4-0.7-0.6-1.2-0.6
		c-0.4,0-0.8,0.1-1.2,0.3c-0.5,0.3-1.2,0.9-1.9,1.7L292.7,35.5z"/>
	<path class="st0" d="M316.4,21l-3.8,12c-0.2,0.6-0.3,0.9-0.3,1.1c0,0.1,0,0.2,0.1,0.2c0.1,0.1,0.2,0.1,0.3,0.1
		c0.5,0,1.2-0.5,2.1-1.4c1.3-1.4,2.6-3.4,4-6l1.7-5.4l4.4-0.2l-3.5,11.7c-0.3,1-0.4,1.6-0.4,1.7c0,0.1,0,0.2,0.1,0.3
		c0.1,0.1,0.2,0.1,0.3,0.1c0.2,0,0.3-0.1,0.5-0.2c0.4-0.3,1-1,1.7-2l0.6,0.4c-1.6,2.8-3.4,4.3-5.4,4.3c-0.7,0-1.3-0.2-1.7-0.6
		c-0.4-0.4-0.6-0.8-0.6-1.4c0-0.6,0.2-1.4,0.5-2.4l0.9-3c-1.5,2.2-2.6,3.7-3.3,4.5c-1,1.2-1.9,1.9-2.6,2.3c-0.7,0.4-1.4,0.6-2.1,0.6
		c-0.6,0-1.1-0.2-1.6-0.7c-0.5-0.5-0.7-1-0.7-1.7c0-0.6,0.2-1.4,0.5-2.4l2.2-7c0.3-1.1,0.5-1.9,0.5-2.3c0-0.2,0-0.3-0.1-0.5
		c-0.1-0.1-0.2-0.2-0.4-0.3c-0.2-0.1-0.5-0.1-1-0.1l0.2-0.7l6-1.1H316.4z"/>
	<path class="st0" d="M336.5,16.7l-1.5,4.8h2l-0.6,2h-2l-3.2,10.4c-0.2,0.6-0.3,1.1-0.3,1.5c0,0.1,0.1,0.2,0.2,0.3
		c0.1,0.1,0.2,0.1,0.4,0.1c0.2,0,0.4-0.1,0.6-0.2c0.5-0.4,1.2-1.1,1.9-2.2l0.6,0.4c-0.8,1.4-1.7,2.5-2.7,3.1c-1,0.7-1.9,1-2.9,1
		c-0.8,0-1.4-0.2-1.9-0.6c-0.4-0.4-0.7-0.9-0.7-1.5c0-0.7,0.2-1.6,0.5-2.6l3-9.5h-2.3l0.3-1.3c1.4-0.6,2.7-1.2,3.7-1.9
		c1.1-0.7,2.3-1.9,3.8-3.6H336.5z"/>
	<path class="st0" d="M341.5,30.7c-0.1,0.8-0.2,1.4-0.2,1.9c0,0.9,0.2,1.6,0.8,2.1c0.5,0.5,1.2,0.8,2,0.8c0.8,0,1.7-0.2,2.5-0.5
		c0.8-0.4,1.8-1,2.9-1.8l0.5,0.4c-1.3,1.5-2.7,2.6-3.9,3.3c-1.3,0.6-2.7,1-4.2,1c-2,0-3.3-0.5-4.1-1.4c-0.7-0.9-1.1-2-1.1-3.3
		c0-1.9,0.6-3.9,1.7-5.8c1.1-1.9,2.6-3.5,4.6-4.6c1.9-1.2,3.9-1.7,5.8-1.7c1,0,1.7,0.2,2.2,0.7c0.5,0.5,0.8,1.1,0.8,1.8
		c0,0.9-0.2,1.7-0.7,2.5c-0.7,1.1-1.5,2-2.6,2.7c-1,0.7-2.2,1.2-3.5,1.5C344.1,30.4,342.9,30.6,341.5,30.7z M341.7,29.8
		c1-0.1,1.8-0.4,2.4-0.6c0.6-0.3,1.1-0.7,1.7-1.3c0.6-0.6,1-1.3,1.4-2.2c0.4-0.9,0.6-1.7,0.6-2.5c0-0.3-0.1-0.6-0.3-0.8
		c-0.2-0.2-0.4-0.3-0.7-0.3c-0.6,0-1.2,0.4-1.9,1.2C343.6,24.8,342.5,27,341.7,29.8z"/>
	<path class="st0" d="M361.1,21l-3.1,9.9c2.1-4.8,3.7-7.8,4.8-8.9c0.6-0.7,1.3-1,2-1c0.5,0,0.9,0.2,1.2,0.5c0.3,0.4,0.4,0.9,0.4,1.5
		c0,1.1-0.3,2.1-0.8,2.9c-0.3,0.5-0.7,0.7-1.2,0.7c-0.5,0-0.8-0.2-1-0.6c-0.2-0.4-0.4-0.7-0.5-0.8c-0.1-0.1-0.2-0.1-0.3-0.1
		c-0.1,0-0.2,0-0.4,0.1c-0.3,0.1-0.6,0.5-1,1c-0.4,0.5-0.9,1.5-1.5,2.8c-0.6,1.3-1.1,2.4-1.4,3.3c-0.3,0.9-0.8,2.6-1.5,5h-4.3
		l3.3-11.7c0.2-0.9,0.3-1.4,0.3-1.7c0-0.3-0.1-0.6-0.2-0.7c-0.1-0.2-0.3-0.3-0.6-0.4c-0.2-0.1-0.7-0.1-1.5-0.1l0.1-0.5l5.9-1.2
		H361.1z"/>
	<path class="st0" d="M379.3,21l-0.8,5.4h-0.7c-0.1-1.4-0.5-2.5-1.3-3.3c-0.8-0.8-1.6-1.2-2.5-1.2c-0.5,0-1,0.2-1.3,0.5
		c-0.3,0.3-0.5,0.7-0.5,1.1c0,0.4,0.1,0.7,0.2,1.1c0.2,0.3,0.5,0.8,1,1.3c1.8,2,3,3.4,3.4,4.1c0.4,0.8,0.6,1.6,0.6,2.4
		c0,0.9-0.2,1.8-0.7,2.6c-0.5,0.8-1.2,1.5-2.1,2c-0.9,0.5-1.9,0.7-2.9,0.7c-0.7,0-1.5-0.1-2.5-0.4c-0.6-0.2-1.1-0.3-1.5-0.3
		c-0.3,0-0.5,0-0.7,0.1c-0.2,0.1-0.3,0.3-0.5,0.5h-0.7l0.8-5.8h0.6c0.4,1.4,0.8,2.4,1.1,3.1c0.4,0.6,0.8,1.1,1.4,1.4
		c0.6,0.4,1.2,0.5,1.7,0.5c0.7,0,1.2-0.2,1.6-0.6c0.4-0.4,0.6-0.9,0.6-1.5c0-0.6-0.1-1.1-0.4-1.6c-0.3-0.5-0.9-1.3-1.9-2.4
		c-1.4-1.5-2.3-2.6-2.7-3.5c-0.3-0.6-0.5-1.3-0.5-2c0-1.3,0.5-2.3,1.4-3.2c0.9-0.8,2.2-1.3,3.9-1.3c0.7,0,1.6,0.1,2.7,0.4
		c0.5,0.1,1,0.2,1.3,0.2c0.5,0,0.8-0.2,1.1-0.6H379.3z"/>
</g>
<g>
	<path class="st0" d="M95.3,61.5c-0.1-0.6-0.1-1.2-0.2-1.7s-0.1-1-0.1-1.3c0-2.3,0.7-4.3,2.2-5.8c1.5-1.6,3.2-2.3,5.1-2.3
		c1.3,0,2.3,0.4,3,1.1c0.8,0.7,1.2,1.6,1.2,2.6c0,1.3-0.4,2.3-1.1,3.2c-1.1,1.4-2.9,2.6-5.3,3.6c0.8,2.5,1.3,4.1,1.6,4.9
		c0.3,0.7,0.7,1.5,1.2,2.4c0.7-0.7,1.1-1.5,1.4-2.2c0.3-0.7,0.4-1.3,0.4-1.7c0-0.4-0.1-0.7-0.3-1c-0.2-0.3-0.6-0.5-1.1-0.6l0.2-0.6
		h6.7l-0.3,0.6c-0.6,0.2-1.2,0.4-1.6,0.8c-0.4,0.4-1.2,1.3-2.4,2.9c-0.8,1.1-1.7,2.1-2.5,3c0.9,1.3,1.8,2.2,2.6,2.7
		c0.5,0.3,1.1,0.5,1.7,0.5c0.4,0,0.7-0.1,0.9-0.2c0.3-0.1,0.6-0.3,1-0.7h0.6c-0.6,1.2-1.3,2.1-2.2,2.7c-0.9,0.6-2,0.9-3.1,0.9
		c-1,0-1.9-0.2-2.7-0.6c-0.8-0.4-1.6-1.1-2.5-2c-1.2,0.9-2.4,1.5-3.6,1.9c-1.2,0.4-2.5,0.6-3.7,0.6c-1.8,0-3.2-0.5-4.3-1.5
		c-1.1-1-1.6-2.2-1.6-3.5c0-1.1,0.2-2,0.7-2.9c0.5-0.8,1.3-1.7,2.6-2.7S92.9,62.5,95.3,61.5z M95.6,62.8c-1.3,0.7-2.3,1.5-2.9,2.3
		s-0.9,1.7-0.9,2.8c0,1.3,0.4,2.5,1.3,3.4c0.8,0.9,1.8,1.4,2.8,1.4c0.4,0,0.9-0.1,1.5-0.3c0.5-0.2,1.1-0.5,1.8-0.9
		c-0.7-1.1-1.4-2.4-2.1-4.1C96.4,65.8,95.9,64.2,95.6,62.8z M99.8,59.4c1-0.7,1.7-1.4,2.1-2.1c0.6-1,0.9-2.1,0.9-3.2
		c0-0.8-0.2-1.5-0.5-1.9c-0.3-0.3-0.6-0.5-1.1-0.5c-0.5,0-0.9,0.2-1.2,0.6c-0.4,0.6-0.7,1.6-0.7,2.9c0,0.6,0,1.2,0.1,1.9
		C99.5,57.8,99.6,58.6,99.8,59.4z"/>
	<path class="st0" d="M135.5,52.1l-2.7,9.2h0.8c2.1,0,3.7-0.3,4.7-0.8c1-0.6,1.8-1.6,2.5-3h0.6l-2.7,9.3h-0.6
		c0.1-0.6,0.2-1.1,0.2-1.5c0-0.6-0.2-1.2-0.6-1.6c-0.4-0.4-0.9-0.7-1.5-0.9c-0.4-0.1-1.2-0.2-2.5-0.2h-1.4l-2.3,8
		c-0.2,0.7-0.3,1.2-0.3,1.6c0,0.3,0.1,0.5,0.4,0.6c0.4,0.2,1.1,0.4,2.1,0.4c2,0,3.9-0.4,5.7-1.3c1.8-0.8,3.4-2.1,4.8-3.9h0.7
		l-2.5,6.5h-20.4l0.2-0.6c1.2,0,2.1-0.2,2.6-0.7c0.6-0.5,1-1.4,1.5-3l4.5-15.3c0.2-0.9,0.4-1.5,0.4-2c0-0.4-0.2-0.8-0.5-1
		c-0.3-0.2-1-0.4-2.2-0.5l0.2-0.6h19l-1.5,6h-0.6c0-1.2-0.2-2-0.5-2.5c-0.5-0.7-1.1-1.3-2-1.6c-0.8-0.3-2.1-0.5-4-0.5H135.5z"/>
	<path class="st0" d="M157.3,50.2L151.4,70c-0.3,1.2-0.5,1.9-0.5,2.2c0,0.2,0,0.3,0.1,0.4c0.1,0.1,0.2,0.2,0.3,0.2
		c0.2,0,0.4-0.1,0.6-0.2c0.6-0.5,1.2-1.2,1.9-2.3l0.7,0.3c-1.1,1.8-2.2,3.1-3.3,3.8c-0.7,0.5-1.5,0.8-2.4,0.8
		c-0.8,0-1.4-0.2-1.8-0.6s-0.7-0.9-0.7-1.5c0-0.4,0.1-1.1,0.4-2.1l4.7-16.2c0.3-0.9,0.4-1.5,0.4-1.8c0-0.3-0.1-0.5-0.4-0.7
		c-0.3-0.2-0.8-0.3-1.5-0.3l0.2-0.7l5.9-1H157.3z"/>
	<path class="st0" d="M161.5,68c-0.1,0.8-0.2,1.4-0.2,1.9c0,0.9,0.3,1.6,0.8,2.1c0.5,0.5,1.2,0.8,2,0.8c0.8,0,1.6-0.2,2.5-0.6
		c0.8-0.4,1.8-1.1,2.9-2.1l0.5,0.5c-1.3,1.6-2.7,2.8-3.9,3.5s-2.7,1-4.2,1c-2,0-3.3-0.5-4.1-1.4c-0.7-0.9-1.1-2-1.1-3.2
		c0-1.9,0.6-3.8,1.7-5.8c1.1-1.9,2.6-3.5,4.6-4.6c1.9-1.2,3.9-1.7,5.8-1.7c1,0,1.7,0.2,2.2,0.7c0.5,0.5,0.8,1.1,0.8,1.8
		c0,0.9-0.2,1.7-0.7,2.5c-0.7,1.1-1.5,2-2.6,2.7c-1,0.7-2.2,1.2-3.5,1.5C164.1,67.7,162.9,67.9,161.5,68z M161.6,67.1
		c1-0.2,1.8-0.4,2.4-0.6c0.6-0.3,1.1-0.7,1.7-1.3c0.5-0.6,1-1.3,1.4-2.2c0.4-0.9,0.6-1.7,0.6-2.5c0-0.3-0.1-0.6-0.3-0.8
		c-0.2-0.2-0.4-0.3-0.7-0.3c-0.6,0-1.2,0.4-1.9,1.2C163.6,62.1,162.5,64.2,161.6,67.1z"/>
	<path class="st0" d="M185.3,70.4l0.5,0.5c-1.1,1.4-2.3,2.4-3.4,3c-1.5,0.8-3,1.3-4.5,1.3c-1.1,0-2-0.2-2.8-0.7
		c-0.8-0.5-1.4-1.1-1.8-1.9c-0.4-0.8-0.6-1.6-0.6-2.5c0-1.9,0.5-3.8,1.6-5.7c1-1.9,2.4-3.3,4.1-4.4c1.7-1.1,3.4-1.6,5-1.6
		c1.3,0,2.3,0.3,3,0.9s1,1.3,1,2.2c0,0.8-0.3,1.5-0.8,2c-0.5,0.6-1.1,0.8-1.7,0.8c-0.5,0-1-0.2-1.3-0.5c-0.4-0.4-0.5-0.8-0.5-1.2
		c0-0.6,0.3-1.2,0.9-1.7c0.4-0.3,0.6-0.6,0.6-0.9c0-0.2-0.1-0.4-0.3-0.5c-0.2-0.2-0.5-0.3-0.9-0.3c-1,0-1.9,0.4-2.8,1.2
		c-1.1,1.1-2,2.4-2.6,4c-0.6,1.6-0.9,3.1-0.9,4.6c0,1.1,0.3,2.1,0.9,2.7c0.6,0.7,1.4,1,2.2,1c0.7,0,1.6-0.2,2.4-0.6
		C183.7,71.7,184.6,71.1,185.3,70.4z"/>
	<path class="st0" d="M198.1,54l-1.4,4.8h2.3l-0.6,2h-2.3L193.2,71c-0.2,0.6-0.3,1.1-0.3,1.4c0,0.2,0.1,0.3,0.2,0.4s0.2,0.2,0.4,0.2
		c0.2,0,0.4-0.1,0.6-0.2c0.5-0.4,1.2-1.1,1.9-2.1l0.6,0.4c-0.8,1.4-1.7,2.4-2.7,3.1c-1,0.7-1.9,1-2.9,1c-0.8,0-1.4-0.2-1.9-0.6
		c-0.4-0.4-0.7-0.9-0.7-1.5c0-0.7,0.2-1.6,0.5-2.6l2.8-9.5h-2.4l0.4-1.3c1.5-0.6,2.8-1.2,3.8-1.9c1-0.7,2.3-1.9,3.7-3.6H198.1z"/>
	<path class="st0" d="M206.3,58.3l-2.7,9.9c2.2-4.8,3.8-7.8,4.9-8.9c0.6-0.7,1.3-1,2-1c0.5,0,0.9,0.2,1.2,0.5
		c0.3,0.4,0.5,0.9,0.5,1.5c0,1.1-0.3,2.1-0.8,2.9c-0.4,0.5-0.7,0.7-1.2,0.7c-0.5,0-0.8-0.2-1.1-0.6c-0.2-0.4-0.4-0.7-0.5-0.8
		s-0.2-0.1-0.3-0.1c-0.1,0-0.2,0-0.4,0.1c-0.3,0.1-0.6,0.5-1,1c-0.4,0.5-0.9,1.5-1.5,2.7s-1.1,2.4-1.4,3.2s-0.8,2.6-1.4,5h-4.3
		l2.9-11.6c0.2-0.9,0.3-1.4,0.3-1.7c0-0.3-0.1-0.6-0.2-0.7s-0.3-0.3-0.5-0.4c-0.2-0.1-0.6-0.1-1.2-0.1l0.2-0.5l5.3-1.2H206.3z"/>
	<path class="st0" d="M223.6,58.3c0.9,0,1.8,0.2,2.6,0.6c0.8,0.4,1.4,1,1.8,1.8c0.4,0.8,0.6,1.6,0.6,2.5c0,1.9-0.5,3.8-1.6,5.7
		s-2.5,3.4-4.2,4.5c-1.7,1.1-3.5,1.6-5.2,1.6c-1.6,0-2.8-0.5-3.7-1.4c-0.9-0.9-1.3-2.1-1.3-3.5c0-1.6,0.3-3.2,1-4.6s1.5-2.7,2.5-3.7
		c1-1.1,2.2-1.9,3.5-2.6S222.2,58.3,223.6,58.3z M222.9,59.2c-0.6,0-1.1,0.2-1.5,0.5c-0.8,0.7-1.7,2.5-2.8,5.2
		c-1,2.7-1.5,5.2-1.5,7.3c0,0.5,0.2,1,0.5,1.3c0.3,0.4,0.7,0.5,1.2,0.5c0.5,0,0.9-0.1,1.2-0.4c0.5-0.4,1.1-1.4,1.9-2.8
		s1.4-3.1,1.8-4.9c0.5-1.8,0.7-3.4,0.7-4.9c0-0.6-0.1-1.1-0.4-1.4C223.6,59.4,223.3,59.2,222.9,59.2z"/>
	<path class="st0" d="M239.4,58.3l-2.2,7.5c1.5-2.2,2.6-3.7,3.3-4.5c1.1-1.2,2-2,2.8-2.4c0.8-0.4,1.5-0.6,2.2-0.6
		c0.6,0,1.1,0.2,1.6,0.7c0.4,0.5,0.6,1,0.6,1.8c0,0.7-0.1,1.5-0.4,2.4l-2.2,7.5c-0.2,0.7-0.3,1.1-0.3,1.3c0,0.1,0,0.2,0.1,0.3
		s0.2,0.1,0.3,0.1c0.1,0,0.2,0,0.4-0.1c0.4-0.3,0.8-0.8,1.2-1.4c0.1-0.2,0.3-0.4,0.5-0.7l0.7,0.4c-1.7,2.9-3.5,4.3-5.4,4.3
		c-0.7,0-1.3-0.2-1.7-0.6c-0.4-0.4-0.6-0.8-0.6-1.4c0-0.5,0.1-1.2,0.4-2.2l2.2-7.5c0.2-0.5,0.2-0.9,0.2-1.1c0-0.1-0.1-0.2-0.2-0.3
		c-0.1-0.1-0.2-0.1-0.4-0.1c-0.4,0-1,0.3-1.6,0.9c-1.6,1.5-3.2,3.8-4.7,6.9l-1.4,5.2h-4.5l3.3-11.3c0.3-1.1,0.5-1.9,0.5-2.4
		c0-0.2,0-0.4-0.1-0.5c-0.1-0.1-0.2-0.2-0.5-0.3c-0.2-0.1-0.6-0.1-1.2-0.1l0.2-0.7l5.9-1H239.4z"/>
	<path class="st0" d="M259,58.3l-3.6,12.5c-0.2,0.7-0.3,1.2-0.3,1.4c0,0.1,0.1,0.2,0.2,0.4c0.1,0.1,0.2,0.2,0.3,0.2
		c0.2,0,0.4-0.1,0.6-0.3c0.5-0.4,1.2-1.2,1.9-2.4l0.6,0.4c-1.8,3.1-3.6,4.6-5.6,4.6c-0.8,0-1.4-0.2-1.8-0.6c-0.5-0.4-0.7-1-0.7-1.6
		c0-0.4,0.1-1,0.3-1.7l2.4-8.4c0.2-0.8,0.4-1.4,0.4-1.8c0-0.3-0.1-0.5-0.3-0.7c-0.2-0.2-0.5-0.3-0.9-0.3c-0.2,0-0.4,0-0.6,0l0.2-0.7
		l6-1H259z M257.9,50.2c0.7,0,1.3,0.3,1.8,0.8c0.5,0.5,0.7,1.1,0.7,1.8s-0.3,1.3-0.8,1.8c-0.5,0.5-1.1,0.8-1.8,0.8
		c-0.7,0-1.3-0.3-1.8-0.8s-0.8-1.1-0.8-1.8s0.2-1.3,0.7-1.8S257.1,50.2,257.9,50.2z"/>
	<path class="st0" d="M273.3,70.4l0.5,0.5c-1.1,1.4-2.3,2.4-3.4,3c-1.5,0.8-3,1.3-4.5,1.3c-1.1,0-2-0.2-2.8-0.7
		c-0.8-0.5-1.4-1.1-1.8-1.9c-0.4-0.8-0.6-1.6-0.6-2.5c0-1.9,0.5-3.8,1.6-5.7c1-1.9,2.4-3.3,4.1-4.4c1.7-1.1,3.4-1.6,5-1.6
		c1.3,0,2.3,0.3,3,0.9s1,1.3,1,2.2c0,0.8-0.3,1.5-0.8,2c-0.5,0.6-1.1,0.8-1.7,0.8c-0.5,0-1-0.2-1.3-0.5c-0.4-0.4-0.5-0.8-0.5-1.2
		c0-0.6,0.3-1.2,0.9-1.7c0.4-0.3,0.6-0.6,0.6-0.9c0-0.2-0.1-0.4-0.3-0.5c-0.2-0.2-0.5-0.3-0.9-0.3c-1,0-1.9,0.4-2.8,1.2
		c-1.1,1.1-2,2.4-2.6,4c-0.6,1.6-0.9,3.1-0.9,4.6c0,1.1,0.3,2.1,0.9,2.7c0.6,0.7,1.4,1,2.2,1c0.7,0,1.6-0.2,2.4-0.6
		C271.7,71.7,272.5,71.1,273.3,70.4z"/>
	<path class="st0" d="M289.1,58.3l-0.8,5.4h-0.6c-0.1-1.4-0.5-2.5-1.3-3.3s-1.6-1.2-2.5-1.2c-0.5,0-1,0.2-1.3,0.5
		c-0.4,0.3-0.5,0.7-0.5,1.1c0,0.4,0.1,0.7,0.2,1.1c0.2,0.3,0.5,0.8,1,1.3c1.9,2,3,3.4,3.4,4.1c0.4,0.7,0.6,1.6,0.6,2.4
		c0,0.9-0.2,1.8-0.7,2.6c-0.5,0.8-1.2,1.5-2.1,2c-0.9,0.5-1.9,0.7-2.9,0.7c-0.7,0-1.5-0.1-2.5-0.4c-0.7-0.2-1.1-0.3-1.5-0.3
		c-0.3,0-0.5,0-0.7,0.1s-0.3,0.3-0.5,0.6h-0.6l0.9-5.8h0.6c0.4,1.4,0.8,2.4,1.2,3c0.4,0.6,0.8,1.1,1.4,1.4c0.6,0.4,1.2,0.5,1.7,0.5
		c0.6,0,1.2-0.2,1.6-0.6c0.4-0.4,0.6-0.9,0.6-1.4c0-0.6-0.1-1.1-0.4-1.6c-0.3-0.5-0.9-1.3-1.9-2.4c-1.4-1.5-2.3-2.6-2.7-3.4
		c-0.3-0.6-0.5-1.3-0.5-2c0-1.3,0.5-2.3,1.4-3.2c0.9-0.8,2.2-1.3,3.9-1.3c0.7,0,1.6,0.1,2.7,0.4c0.5,0.1,0.9,0.2,1.3,0.2
		c0.5,0,0.8-0.2,1.1-0.6H289.1z"/>
</g>
<g>
	<path class="st0" d="M68.5,61.3c-2.5,4-5.2,7-8.1,9c-2.8,1.9-6.1,2.9-9.7,2.9c-1.8,0-3.4-0.3-4.9-0.8c2.6-2.6,5.1-6,7.3-10.2h-1.9
		c-2.5,4-5.2,7.1-8.1,9c-1.5-0.9-2.9-1.9-4.1-3.4c-3-3.6-4.5-8.6-4.5-14.7c0-6.1,1.1-12.2,3.2-18.1c2.6-7.2,6.2-12.8,10.8-16.7
		c0.8-0.7,1.7-1.3,2.6-1.9c0.2,0.2,0.4,0.3,0.5,0.5c1,1.1,1.7,2.4,2.2,3.9c0.5,1.5,0.8,3.2,0.9,5.2l0.2,5.3h1.5l3.4-17.5
		c0.3,0,0.6-0.1,1-0.1c1.2,0,2.3,0.1,3.4,0.4l3.3,1.5c0.6,0.4,1,0.8,1.5,1.3c0.9,1,1.6,2.3,2.1,3.7l0.9,5l0.2,6.1h3l4.5-22.8h-1
		h-1.9l-2.5,2.9l-1.3,0.3c-0.3,0-1.1-0.1-2.9-0.9c-3.4-1.5-6.6-2.3-9.4-2.3c-3.8,0-7.6,0.8-11.3,2.5c-2.4-0.9-4.6-1.3-6.6-1.3
		c-5.7,0-11.4,1.9-17.1,5.8c-5.6,3.9-10.1,9.2-13.3,15.9c-3.2,6.8-4.8,13.7-4.8,20.9c0,4.7,0.9,9,2.7,13.1c1.8,4.1,4.5,7.2,7.9,9.4
		c3.5,2.2,7.5,3.4,12,3.4c3.1,0,5.8-0.5,8.4-1.5c2.9,1.3,6.1,1.9,9.6,1.9c5.2,0,9.8-1.4,13.6-4.1c3.7-2.7,7.1-7,10.2-12.7l0.6-1.2
		h-3.7L68.5,61.3z M32.7,74.3c-5.1,0-9.2-1.9-12.3-5.7c-3.2-3.8-4.7-8.8-4.7-15.2c0-6.2,1.1-12.3,3.3-18.4c2.7-7.3,6.3-13,11-17
		c3.7-3.1,8-4.7,12.8-4.7c0.8,0,1.6,0.1,2.3,0.2c-0.7,0.4-1.4,0.8-2,1.3c-5.7,3.9-10.3,9.4-13.6,16.2c-3.3,6.8-4.9,14-4.9,21.2
		c0,4.8,0.9,9.3,2.8,13.4c1.6,3.5,3.8,6.3,6.6,8.5C33.6,74.3,33.2,74.3,32.7,74.3z"/>
	<polygon class="st0" points="79,52.7 85.7,47.8 83.9,46.6 85.4,42.6 81.1,43 80.2,41.1 77.3,44.8 76.5,44.4 77.9,37.5 75.9,39 
		73,34 70.3,38.8 68.2,37.4 69.6,44.4 68.8,44.7 66,41.2 65,43 60.9,42.6 62.3,46.7 60.3,47.8 67,52.7 66.4,55 72.7,54.4 72.4,57.8 
		73.9,57.8 73.7,54.4 79.8,55 	"/>
</g>
</svg>
